<?xml version="1.0" standalone="no"?>
<!DOCTYPE svg PUBLIC "-//W3C//DTD SVG 20010904//EN"
 "http://www.w3.org/TR/2001/REC-SVG-20010904/DTD/svg10.dtd">
<svg version="1.0" xmlns="http://www.w3.org/2000/svg"
 width="50.000000pt" height="50.000000pt" viewBox="0 0 50.000000 50.000000"
 preserveAspectRatio="xMidYMid meet">
<metadata>
Created by potrace 1.16, written by Peter Selinger 2001-2019
</metadata>
<g transform="translate(0.000000,50.000000) scale(0.100000,-0.100000)"
fill="#000000" stroke="none">
<path d="M107 372 c-20 -21 -37 -46 -37 -56 0 -30 50 -86 76 -86 29 0 33 34 7
62 -16 17 -16 20 2 36 18 16 18 16 6 -1 -12 -15 -11 -20 3 -35 18 -21 21 -57
6 -67 -6 -3 -10 -50 -10 -106 l0 -99 30 0 30 0 0 105 c0 63 4 105 10 105 6 0
10 -42 10 -105 l0 -105 30 0 31 0 -3 160 c-3 145 -2 158 12 140 23 -30 71 -60
98 -60 36 0 29 44 -11 69 -18 11 -42 34 -55 50 -26 36 -42 39 -67 11 -10 -11
-30 -20 -45 -20 -15 0 -35 9 -45 20 -25 28 -36 25 -78 -18z"/>
</g>
</svg>
