<?xml version="1.0" standalone="no"?>
<!DOCTYPE svg PUBLIC "-//W3C//DTD SVG 20010904//EN"
 "http://www.w3.org/TR/2001/REC-SVG-20010904/DTD/svg10.dtd">
<svg version="1.0" xmlns="http://www.w3.org/2000/svg"
 width="50.000000pt" height="50.000000pt" viewBox="0 0 50.000000 50.000000"
 preserveAspectRatio="xMidYMid meet">
<metadata>
Created by potrace 1.16, written by Peter Selinger 2001-2019
</metadata>
<g transform="translate(0.000000,50.000000) scale(0.100000,-0.100000)"
fill="#000000" stroke="none">
<path d="M113 454 c-27 -29 -30 -70 -6 -96 13 -14 14 -21 5 -30 -7 -7 -12 -22
-12 -35 0 -17 6 -23 23 -23 31 0 177 147 177 178 0 37 -39 27 -95 -25 -31 -30
-37 -34 -16 -11 29 31 32 40 21 53 -19 23 -71 17 -97 -11z"/>
<path d="M230 330 c-27 -27 -27 -93 0 -120 13 -13 33 -20 60 -20 27 0 47 7 60
20 13 13 20 33 20 60 0 53 -27 80 -80 80 -27 0 -47 -7 -60 -20z"/>
<path d="M80 204 c0 -57 4 -94 12 -102 7 -7 34 -12 60 -12 l48 0 0 -35 0 -35
105 0 105 0 0 41 c0 31 -6 47 -29 70 -29 28 -32 29 -130 29 l-101 0 0 50 c0
46 -2 50 -25 50 -13 0 -29 8 -34 18 -8 12 -10 -7 -11 -74z"/>
</g>
</svg>
